<mxfile host="app.diagrams.net" modified="2022-03-25T04:24:00.783Z" agent="5.0 (Windows NT 10.0; Win64; x64) AppleWebKit/537.36 (KHTML, like Gecko) Chrome/99.0.4844.82 Safari/537.36" etag="CBil31ukk6To4r_UW1_0" version="17.1.0" type="github">
  <diagram id="hV5gkn2egeSxWEqmsEY8" name="Page-1">
    <mxGraphModel dx="1038" dy="1671" grid="1" gridSize="10" guides="1" tooltips="1" connect="1" arrows="1" fold="1" page="1" pageScale="1" pageWidth="850" pageHeight="1100" math="0" shadow="0">
      <root>
        <mxCell id="0" />
        <mxCell id="1" parent="0" />
        <mxCell id="FF5P9LV5uI7e1MVNFa9R-4" value="&lt;br&gt;&lt;br&gt;user" style="shape=actor;whiteSpace=wrap;html=1;" vertex="1" parent="1">
          <mxGeometry x="160" y="-330" width="30" height="50" as="geometry" />
        </mxCell>
        <mxCell id="FF5P9LV5uI7e1MVNFa9R-10" value="Cloudfront" style="ellipse;shape=cloud;whiteSpace=wrap;html=1;fillColor=#cce5ff;strokeColor=#36393d;" vertex="1" parent="1">
          <mxGeometry x="400" y="-350" width="120" height="80" as="geometry" />
        </mxCell>
        <mxCell id="FF5P9LV5uI7e1MVNFa9R-11" value="s3" style="shape=datastore;whiteSpace=wrap;html=1;fillColor=#cdeb8b;strokeColor=#36393d;" vertex="1" parent="1">
          <mxGeometry x="580" y="-340" width="60" height="60" as="geometry" />
        </mxCell>
        <mxCell id="FF5P9LV5uI7e1MVNFa9R-12" value="Route53" style="rounded=1;whiteSpace=wrap;html=1;fillColor=#f0a30a;fontColor=#000000;strokeColor=#BD7000;" vertex="1" parent="1">
          <mxGeometry x="270" y="-320" width="70" height="40" as="geometry" />
        </mxCell>
        <mxCell id="FF5P9LV5uI7e1MVNFa9R-13" value="" style="endArrow=classic;html=1;rounded=0;" edge="1" parent="1">
          <mxGeometry width="50" height="50" relative="1" as="geometry">
            <mxPoint x="200" y="-300" as="sourcePoint" />
            <mxPoint x="260" y="-300" as="targetPoint" />
          </mxGeometry>
        </mxCell>
        <mxCell id="FF5P9LV5uI7e1MVNFa9R-14" value="" style="endArrow=classic;html=1;rounded=0;" edge="1" parent="1">
          <mxGeometry width="50" height="50" relative="1" as="geometry">
            <mxPoint x="350" y="-300" as="sourcePoint" />
            <mxPoint x="400" y="-300" as="targetPoint" />
          </mxGeometry>
        </mxCell>
        <mxCell id="FF5P9LV5uI7e1MVNFa9R-15" value="" style="endArrow=classic;html=1;rounded=0;" edge="1" parent="1">
          <mxGeometry width="50" height="50" relative="1" as="geometry">
            <mxPoint x="530" y="-300" as="sourcePoint" />
            <mxPoint x="570" y="-300" as="targetPoint" />
          </mxGeometry>
        </mxCell>
        <mxCell id="FF5P9LV5uI7e1MVNFa9R-17" value="ACM" style="rhombus;whiteSpace=wrap;html=1;fillColor=#fff2cc;strokeColor=#d6b656;" vertex="1" parent="1">
          <mxGeometry x="430" y="-440" width="60" height="50" as="geometry" />
        </mxCell>
        <mxCell id="FF5P9LV5uI7e1MVNFa9R-18" value="" style="endArrow=classic;html=1;rounded=0;" edge="1" parent="1">
          <mxGeometry width="50" height="50" relative="1" as="geometry">
            <mxPoint x="460" y="-380" as="sourcePoint" />
            <mxPoint x="460" y="-350" as="targetPoint" />
          </mxGeometry>
        </mxCell>
      </root>
    </mxGraphModel>
  </diagram>
</mxfile>
